<svg xmlns="http://www.w3.org/2000/svg" xmlns:xlink="http://www.w3.org/1999/xlink" width="377" zoomAndPan="magnify" viewBox="0 0 283.5 283.500005" height="377" preserveAspectRatio="xMidYMid meet" version="1.0"><defs><clipPath id="b1a376c695"><path d="M 172 107.472656 L 182 107.472656 L 182 117 L 172 117 Z M 172 107.472656 " clip-rule="nonzero"/></clipPath><clipPath id="591901a40c"><path d="M 127 177 L 138 177 L 138 185.335938 L 127 185.335938 Z M 127 177 " clip-rule="nonzero"/></clipPath><clipPath id="9dd15e01d5"><path d="M 190 109 L 198.207031 109 L 198.207031 118 L 190 118 Z M 190 109 " clip-rule="nonzero"/></clipPath><clipPath id="d752849cad"><path d="M 0 0 L 282.253906 0 L 282.253906 282.253906 L 0 282.253906 Z M 0 0 " clip-rule="nonzero"/></clipPath><clipPath id="fbc5ee06bb"><path d="M 0 0 L 281.503906 0 L 281.503906 281.503906 L 0 281.503906 Z M 0 0 " clip-rule="nonzero"/></clipPath></defs><path fill="#f89e6b" d="M 110.882812 170.957031 C 110.898438 174.425781 107.644531 176.644531 104.09375 176.101562 C 101.203125 175.660156 98.523438 172.8125 98.0625 169.894531 C 97.980469 169.351562 98.011719 168.820312 98.160156 168.292969 C 98.308594 167.765625 98.558594 167.292969 98.910156 166.871094 C 100.332031 165.039062 104.234375 163.714844 106.199219 164.371094 C 106.886719 164.605469 107.519531 164.941406 108.101562 165.375 C 108.683594 165.8125 109.1875 166.324219 109.605469 166.914062 C 110.027344 167.503906 110.34375 168.144531 110.5625 168.835938 C 110.78125 169.527344 110.890625 170.234375 110.882812 170.957031 Z M 110.882812 170.957031 " fill-opacity="1" fill-rule="nonzero"/><path fill="#f89e6a" d="M 163.902344 123.117188 C 163.902344 126.605469 161.28125 129.738281 158.402344 129.691406 C 155.554688 129.636719 152.75 126.351562 152.789062 123.113281 C 152.808594 122.71875 152.863281 122.332031 152.957031 121.949219 C 153.050781 121.566406 153.179688 121.199219 153.34375 120.839844 C 153.511719 120.484375 153.707031 120.144531 153.941406 119.824219 C 154.171875 119.507812 154.429688 119.210938 154.71875 118.941406 C 155.007812 118.675781 155.320312 118.433594 155.65625 118.226562 C 155.988281 118.015625 156.34375 117.84375 156.710938 117.699219 C 157.082031 117.558594 157.460938 117.457031 157.851562 117.386719 C 158.238281 117.320312 158.632812 117.289062 159.027344 117.296875 C 161.667969 117.378906 163.902344 120.046875 163.902344 123.117188 Z M 163.902344 123.117188 " fill-opacity="1" fill-rule="nonzero"/><path fill="#f89e6b" d="M 168.351562 156.957031 C 167.441406 157 166.65625 156.714844 165.992188 156.09375 C 164.902344 155.136719 163.945312 154.066406 163.121094 152.871094 C 162.179688 151.40625 161.691406 149.828125 162.957031 148.382812 C 164.238281 146.921875 165.90625 145.863281 167.964844 146.355469 C 169.132812 146.636719 170.175781 147.164062 171.09375 147.933594 C 172.011719 148.703125 172.707031 149.636719 173.183594 150.734375 C 174.480469 153.523438 171.789062 157.011719 168.351562 156.957031 Z M 168.351562 156.957031 " fill-opacity="1" fill-rule="nonzero"/><path fill="#f89e6b" d="M 136.871094 144.003906 C 136.804688 144.339844 136.734375 144.6875 136.671875 145.042969 C 136.175781 147.75 134.617188 149.589844 132.617188 149.824219 C 130.402344 150.082031 128.320312 148.628906 127.277344 146.09375 C 127.027344 145.558594 126.875 145 126.824219 144.414062 C 126.773438 143.824219 126.824219 143.25 126.976562 142.679688 C 127.128906 142.109375 127.371094 141.582031 127.710938 141.101562 C 128.046875 140.617188 128.457031 140.203125 128.941406 139.863281 C 129.289062 139.574219 129.675781 139.34375 130.09375 139.167969 C 130.515625 138.996094 130.949219 138.890625 131.402344 138.847656 C 131.855469 138.808594 132.304688 138.835938 132.746094 138.933594 C 133.191406 139.027344 133.613281 139.1875 134.007812 139.410156 C 135.890625 140.335938 136.644531 142.003906 136.871094 144.003906 Z M 136.871094 144.003906 " fill-opacity="1" fill-rule="nonzero"/><path fill="#f89e6a" d="M 188.375 123.144531 C 191.011719 123.101562 194.046875 125.246094 194.746094 127.773438 C 195.136719 129.183594 195.195312 130.65625 194.0625 131.84375 C 193.761719 132.15625 193.421875 132.417969 193.039062 132.632812 C 192.660156 132.84375 192.257812 132.996094 191.835938 133.089844 C 191.410156 133.183594 190.980469 133.214844 190.546875 133.179688 C 190.113281 133.144531 189.691406 133.050781 189.289062 132.894531 C 188.234375 132.554688 187.296875 132.019531 186.476562 131.285156 C 185.652344 130.554688 185.011719 129.683594 184.558594 128.683594 C 183.261719 125.96875 185.246094 123.191406 188.375 123.144531 Z M 188.375 123.144531 " fill-opacity="1" fill-rule="nonzero"/><path fill="#f89e6b" d="M 145.707031 148.851562 C 145.734375 147.527344 146.183594 146.359375 147.050781 145.355469 C 148.863281 143.015625 151.832031 143.230469 153.316406 145.78125 C 154.089844 147.066406 154.386719 148.449219 154.210938 149.933594 C 153.925781 152.273438 152.46875 153.875 150.546875 153.996094 C 150.046875 153.996094 149.554688 153.917969 149.078125 153.761719 C 148.597656 153.605469 148.15625 153.382812 147.75 153.085938 C 147.34375 152.789062 146.996094 152.4375 146.703125 152.027344 C 146.410156 151.621094 146.191406 151.179688 146.039062 150.699219 C 145.882812 150.089844 145.773438 149.476562 145.707031 148.851562 Z M 145.707031 148.851562 " fill-opacity="1" fill-rule="nonzero"/><path fill="#f89e6b" d="M 125.539062 162.535156 C 125.507812 164.84375 123.53125 166.628906 121.011719 166.628906 C 118.328125 166.628906 116.273438 164.820312 116.273438 162.464844 C 116.273438 160.152344 118.757812 157.566406 120.917969 157.628906 C 123.171875 157.691406 125.570312 160.238281 125.539062 162.535156 Z M 125.539062 162.535156 " fill-opacity="1" fill-rule="nonzero"/><path fill="#f89e6b" d="M 136.117188 156.175781 C 137.796875 155.976562 139.195312 156.804688 139.988281 158.550781 C 140.84375 160.429688 141.125 162.363281 139.835938 164.183594 C 139.707031 164.367188 139.558594 164.539062 139.394531 164.695312 C 139.230469 164.851562 139.050781 164.988281 138.855469 165.105469 C 138.664062 165.226562 138.460938 165.324219 138.246094 165.398438 C 138.03125 165.476562 137.8125 165.527344 137.585938 165.558594 C 137.363281 165.589844 137.136719 165.597656 136.910156 165.582031 C 136.683594 165.5625 136.460938 165.523438 136.242188 165.460938 C 136.023438 165.398438 135.8125 165.316406 135.613281 165.207031 C 135.414062 165.101562 135.226562 164.976562 135.050781 164.832031 C 133.078125 163.335938 132.515625 161.132812 132.460938 158.859375 C 132.414062 157.148438 133.820312 156.191406 136.117188 156.175781 Z M 136.117188 156.175781 " fill-opacity="1" fill-rule="nonzero"/><g clip-path="url(#b1a376c695)"><path fill="#f89e6c" d="M 176.6875 116.695312 C 176.144531 116.679688 175.621094 116.566406 175.117188 116.351562 C 174.617188 116.136719 174.171875 115.839844 173.785156 115.457031 C 173.394531 115.074219 173.089844 114.636719 172.867188 114.140625 C 172.648438 113.644531 172.523438 113.125 172.5 112.582031 C 172.53125 110.257812 175.398438 107.488281 177.667969 107.589844 C 179.46875 107.667969 181.058594 109.464844 181.089844 111.445312 C 181.132812 114.132812 178.964844 116.71875 176.6875 116.695312 Z M 176.6875 116.695312 " fill-opacity="1" fill-rule="nonzero"/></g><g clip-path="url(#591901a40c)"><path fill="#f89e6b" d="M 131.71875 177.320312 C 132.515625 177.324219 133.289062 177.46875 134.03125 177.753906 C 136.234375 178.65625 137.304688 180.003906 137.097656 181.703125 C 136.90625 183.269531 135.320312 184.609375 133.195312 184.925781 C 132.328125 185.101562 131.476562 185.050781 130.640625 184.769531 C 129.804688 184.484375 129.097656 184.015625 128.515625 183.351562 C 128.285156 183.097656 128.101562 182.8125 127.960938 182.5 C 127.824219 182.183594 127.734375 181.855469 127.703125 181.515625 C 127.667969 181.175781 127.6875 180.835938 127.765625 180.5 C 127.839844 180.167969 127.964844 179.851562 128.140625 179.558594 C 128.484375 178.886719 128.980469 178.351562 129.621094 177.949219 C 130.261719 177.550781 130.960938 177.339844 131.71875 177.320312 Z M 131.71875 177.320312 " fill-opacity="1" fill-rule="nonzero"/></g><path fill="#f89f6c" d="M 178.371094 130.703125 C 178.351562 131.246094 178.234375 131.769531 178.019531 132.273438 C 177.808594 132.773438 177.511719 133.222656 177.136719 133.617188 C 176.757812 134.011719 176.324219 134.328125 175.832031 134.566406 C 175.339844 134.804688 174.820312 134.949219 174.273438 135 C 174.003906 135.003906 173.734375 134.980469 173.464844 134.933594 C 173.199219 134.882812 172.9375 134.808594 172.6875 134.707031 C 172.4375 134.605469 172.195312 134.480469 171.972656 134.328125 C 171.746094 134.179688 171.535156 134.007812 171.34375 133.816406 C 171.15625 133.625 170.984375 133.414062 170.835938 133.1875 C 170.6875 132.960938 170.566406 132.722656 170.464844 132.46875 C 170.367188 132.21875 170.292969 131.957031 170.25 131.691406 C 170.203125 131.425781 170.183594 131.15625 170.191406 130.886719 C 170.238281 130.320312 170.382812 129.78125 170.621094 129.269531 C 170.859375 128.753906 171.183594 128.296875 171.585938 127.898438 C 171.988281 127.5 172.449219 127.179688 172.96875 126.945312 C 173.488281 126.710938 174.03125 126.570312 174.597656 126.53125 C 176.527344 126.4375 178.339844 128.441406 178.371094 130.703125 Z M 178.371094 130.703125 " fill-opacity="1" fill-rule="nonzero"/><g clip-path="url(#9dd15e01d5)"><path fill="#f89e6b" d="M 198.199219 113.902344 C 198.15625 116.148438 196.71875 117.460938 194.335938 117.433594 C 192.023438 117.410156 190.453125 115.945312 190.472656 113.832031 C 190.488281 111.738281 192.550781 109.257812 194.289062 109.242188 C 196.421875 109.21875 198.246094 111.394531 198.199219 113.902344 Z M 198.199219 113.902344 " fill-opacity="1" fill-rule="nonzero"/></g><path fill="#f89f6c" d="M 177.730469 145.535156 C 175.804688 145.492188 174.242188 144.132812 174.238281 142.492188 C 174.230469 140.449219 176.359375 138.394531 178.480469 138.402344 C 178.714844 138.394531 178.953125 138.414062 179.183594 138.457031 C 179.417969 138.496094 179.644531 138.5625 179.863281 138.648438 C 180.082031 138.738281 180.289062 138.84375 180.488281 138.972656 C 180.683594 139.105469 180.867188 139.25 181.035156 139.417969 C 181.203125 139.585938 181.351562 139.765625 181.480469 139.960938 C 181.613281 140.15625 181.722656 140.367188 181.808594 140.582031 C 181.898438 140.800781 181.960938 141.027344 182.003906 141.257812 C 182.046875 141.488281 182.066406 141.722656 182.058594 141.957031 C 181.949219 143.988281 180.011719 145.585938 177.730469 145.535156 Z M 177.730469 145.535156 " fill-opacity="1" fill-rule="nonzero"/><path fill="#f89f6c" d="M 150.695312 165.914062 C 150.730469 167.585938 150.054688 168.933594 148.898438 169.292969 C 148.242188 169.527344 147.578125 169.5625 146.898438 169.394531 C 146.222656 169.226562 145.652344 168.886719 145.183594 168.371094 C 144.679688 167.90625 144.304688 167.359375 144.046875 166.726562 C 143.789062 166.09375 143.679688 165.433594 143.71875 164.753906 C 143.777344 164.375 143.894531 164.015625 144.070312 163.671875 C 144.242188 163.328125 144.460938 163.019531 144.730469 162.746094 C 145 162.472656 145.304688 162.246094 145.644531 162.066406 C 145.984375 161.886719 146.34375 161.761719 146.722656 161.691406 C 148.300781 161.390625 149.316406 161.976562 150.101562 163.667969 C 150.484375 164.367188 150.683594 165.117188 150.695312 165.914062 Z M 150.695312 165.914062 " fill-opacity="1" fill-rule="nonzero"/><path fill="#f89f6c" d="M 166.589844 137.96875 C 166.527344 140.539062 165.125 142.238281 163.066406 142.238281 C 162.589844 142.210938 162.136719 142.089844 161.707031 141.882812 C 161.277344 141.675781 160.902344 141.398438 160.582031 141.046875 C 160.261719 140.695312 160.019531 140.296875 159.855469 139.847656 C 159.691406 139.402344 159.621094 138.945312 159.636719 138.46875 C 159.683594 136.359375 161.671875 134.21875 163.484375 134.324219 C 165.460938 134.441406 166.636719 135.824219 166.589844 137.96875 Z M 166.589844 137.96875 " fill-opacity="1" fill-rule="nonzero"/><path fill="#f89f6c" d="M 146.417969 137.941406 C 146.226562 137.957031 146.035156 137.949219 145.847656 137.925781 C 145.65625 137.898438 145.46875 137.851562 145.289062 137.789062 C 145.109375 137.722656 144.9375 137.636719 144.777344 137.535156 C 144.613281 137.433594 144.464844 137.3125 144.328125 137.179688 C 144.191406 137.046875 144.070312 136.898438 143.964844 136.738281 C 143.859375 136.578125 143.773438 136.40625 143.707031 136.230469 C 143.636719 136.050781 143.589844 135.867188 143.5625 135.675781 C 143.53125 135.488281 143.523438 135.296875 143.539062 135.105469 C 143.566406 133.152344 146.019531 130.835938 148.035156 130.855469 C 149.796875 130.875 150.828125 131.945312 150.835938 133.757812 C 150.800781 134.320312 150.660156 134.855469 150.421875 135.363281 C 150.183594 135.875 149.859375 136.324219 149.449219 136.710938 C 149.042969 137.097656 148.574219 137.398438 148.050781 137.609375 C 147.527344 137.824219 146.984375 137.933594 146.417969 137.941406 Z M 146.417969 137.941406 " fill-opacity="1" fill-rule="nonzero"/><g clip-path="url(#d752849cad)"><path fill="#e71b24" d="M 219.015625 23.433594 C 196.699219 8.625 169.910156 0 141.125 0 C 112.34375 0 85.554688 8.625 63.238281 23.433594 C 43.355469 36.609375 27.027344 54.695312 15.929688 75.933594 C 5.75 95.414062 0 117.613281 0 141.125 C 0 164.640625 5.75 186.835938 15.929688 206.359375 C 39.484375 251.472656 86.710938 282.253906 141.125 282.253906 C 219.054688 282.253906 282.253906 219.054688 282.253906 141.125 C 282.253906 91.980469 257.140625 48.707031 219.015625 23.433594 Z M 219.015625 23.433594 " fill-opacity="1" fill-rule="nonzero"/></g><path fill="#f7f700" d="M 77.328125 50.382812 L 85.554688 75.292969 L 111.78125 75.414062 L 90.625 90.902344 L 98.609375 115.894531 L 77.328125 100.566406 L 56.050781 115.894531 L 64.035156 90.902344 L 42.875 75.414062 L 69.105469 75.292969 Z M 77.328125 50.382812 " fill-opacity="1" fill-rule="nonzero"/><path fill="#f7f700" d="M 149.269531 104.476562 L 151.507812 111.265625 L 158.691406 111.304688 L 152.902344 115.535156 L 155.097656 122.363281 L 149.269531 118.210938 L 143.480469 122.363281 L 145.636719 115.535156 L 139.847656 111.304688 L 147.035156 111.265625 Z M 149.269531 104.476562 " fill-opacity="1" fill-rule="nonzero"/><path fill="#f7f700" d="M 142.960938 66.070312 L 149.351562 69.304688 L 154.421875 64.273438 L 153.34375 71.339844 L 159.730469 74.613281 L 152.664062 75.773438 L 151.507812 82.839844 L 148.191406 76.492188 L 141.125 77.570312 L 146.15625 72.5 Z M 142.960938 66.070312 " fill-opacity="1" fill-rule="nonzero"/><path fill="#f7f700" d="M 128.3125 128.511719 L 125.078125 134.898438 L 130.148438 140.007812 L 123.042969 138.929688 L 119.765625 145.277344 L 118.609375 138.210938 L 111.542969 137.054688 L 117.890625 133.78125 L 116.8125 126.675781 L 121.921875 131.746094 Z M 128.3125 128.511719 " fill-opacity="1" fill-rule="nonzero"/><path fill="#f7f700" d="M 113.378906 43.195312 L 119.765625 46.390625 L 124.835938 41.359375 L 123.761719 48.425781 L 130.148438 51.738281 L 123.042969 52.898438 L 121.921875 59.964844 L 118.609375 53.574219 L 111.542969 54.652344 L 116.574219 49.582031 Z M 113.378906 43.195312 " fill-opacity="1" fill-rule="nonzero"/><g clip-path="url(#fbc5ee06bb)"><path fill="#e51c22" d="M 281.503906 140.75 C 281.503906 157.210938 278.683594 172.984375 273.507812 187.667969 C 269.746094 198.339844 264.71875 208.433594 258.605469 217.765625 C 233.464844 256.144531 190.09375 281.503906 140.75 281.503906 C 102.046875 281.503906 66.992188 265.875 41.527344 240.589844 C 34.582031 233.683594 28.324219 226.011719 22.898438 217.765625 C 8.429688 195.628906 0 169.183594 0 140.75 C 0 112.320312 8.429688 85.875 22.898438 63.738281 C 28.289062 55.492188 34.546875 47.820312 41.527344 40.875 C 66.992188 15.628906 102.046875 0 140.75 0 C 190.054688 0 233.464844 25.359375 258.605469 63.738281 C 264.71875 73.070312 269.746094 83.128906 273.507812 93.835938 C 278.683594 108.519531 281.503906 124.292969 281.503906 140.75 Z M 281.503906 140.75 " fill-opacity="1" fill-rule="nonzero"/></g><path fill="#292e82" d="M 140.75 0 L 140.75 140.75 L 0 140.75 C 0 112.320312 8.429688 85.875 22.898438 63.738281 C 28.289062 55.492188 34.546875 47.820312 41.527344 40.875 C 66.992188 15.628906 102.046875 0 140.75 0 Z M 140.75 0 " fill-opacity="1" fill-rule="nonzero"/><path fill="#ffffff" d="M 83.707031 60.878906 L 78.675781 45 L 73.648438 60.878906 C 75.277344 60.519531 76.941406 60.335938 78.675781 60.335938 C 80.414062 60.335938 82.078125 60.519531 83.707031 60.878906 Z M 83.707031 60.878906 " fill-opacity="1" fill-rule="nonzero"/><path fill="#ffffff" d="M 71.730469 61.386719 L 59.433594 50.136719 L 63.015625 66.414062 C 65.511719 64.136719 68.476562 62.398438 71.730469 61.386719 Z M 71.730469 61.386719 " fill-opacity="1" fill-rule="nonzero"/><path fill="#ffffff" d="M 97.921875 50.136719 L 85.625 61.386719 C 88.878906 62.398438 91.84375 64.136719 94.304688 66.414062 Z M 97.921875 50.136719 " fill-opacity="1" fill-rule="nonzero"/><path fill="#ffffff" d="M 117.167969 83.488281 L 101.285156 78.460938 C 101.648438 80.089844 101.828125 81.753906 101.828125 83.488281 C 101.828125 85.226562 101.648438 86.890625 101.285156 88.515625 Z M 117.167969 83.488281 " fill-opacity="1" fill-rule="nonzero"/><path fill="#ffffff" d="M 61.640625 67.824219 L 45.363281 64.246094 L 56.613281 76.542969 C 57.625 73.25 59.359375 70.285156 61.640625 67.824219 Z M 61.640625 67.824219 " fill-opacity="1" fill-rule="nonzero"/><path fill="#ffffff" d="M 100.78125 76.507812 L 112.03125 64.207031 L 95.75 67.789062 C 98.03125 70.285156 99.730469 73.25 100.78125 76.507812 Z M 100.78125 76.507812 " fill-opacity="1" fill-rule="nonzero"/><path fill="#ffffff" d="M 85.660156 105.554688 L 97.957031 116.804688 L 94.378906 100.527344 C 91.882812 102.804688 88.914062 104.542969 85.660156 105.554688 Z M 85.660156 105.554688 " fill-opacity="1" fill-rule="nonzero"/><path fill="#ffffff" d="M 73.6875 106.097656 L 78.714844 121.976562 L 83.742188 106.097656 C 82.113281 106.460938 80.449219 106.640625 78.714844 106.640625 C 76.976562 106.640625 75.277344 106.421875 73.6875 106.097656 Z M 73.6875 106.097656 " fill-opacity="1" fill-rule="nonzero"/><path fill="#ffffff" d="M 95.75 99.117188 L 112.03125 102.695312 L 100.78125 90.398438 C 99.730469 93.691406 98.03125 96.65625 95.75 99.117188 Z M 95.75 99.117188 " fill-opacity="1" fill-rule="nonzero"/><path fill="#ffffff" d="M 55.527344 83.488281 C 55.527344 81.753906 55.707031 80.089844 56.070312 78.460938 L 40.1875 83.488281 L 56.070312 88.515625 C 55.742188 86.890625 55.527344 85.1875 55.527344 83.488281 Z M 55.527344 83.488281 " fill-opacity="1" fill-rule="nonzero"/><path fill="#ffffff" d="M 59.433594 116.804688 L 71.730469 105.554688 C 68.476562 104.542969 65.511719 102.804688 63.050781 100.527344 Z M 59.433594 116.804688 " fill-opacity="1" fill-rule="nonzero"/><path fill="#ffffff" d="M 56.613281 90.433594 L 45.363281 102.734375 L 61.640625 99.152344 C 59.359375 96.65625 57.625 93.691406 56.613281 90.433594 Z M 56.613281 90.433594 " fill-opacity="1" fill-rule="nonzero"/><path fill="#ffffff" d="M 99.1875 83.488281 C 99.1875 84.160156 99.15625 84.832031 99.089844 85.5 C 99.023438 86.167969 98.925781 86.832031 98.792969 87.488281 C 98.664062 88.148438 98.5 88.800781 98.304688 89.441406 C 98.109375 90.085938 97.882812 90.71875 97.625 91.335938 C 97.371094 91.957031 97.082031 92.566406 96.765625 93.15625 C 96.449219 93.75 96.105469 94.324219 95.730469 94.882812 C 95.359375 95.441406 94.957031 95.980469 94.53125 96.5 C 94.105469 97.019531 93.65625 97.515625 93.179688 97.992188 C 92.707031 98.46875 92.207031 98.917969 91.6875 99.34375 C 91.171875 99.769531 90.632812 100.167969 90.074219 100.542969 C 89.515625 100.914062 88.9375 101.261719 88.347656 101.578125 C 87.753906 101.894531 87.148438 102.179688 86.527344 102.4375 C 85.90625 102.695312 85.273438 102.921875 84.632812 103.117188 C 83.988281 103.3125 83.339844 103.472656 82.679688 103.605469 C 82.019531 103.734375 81.355469 103.835938 80.6875 103.902344 C 80.019531 103.964844 79.347656 104 78.675781 104 C 78.007812 104 77.335938 103.964844 76.667969 103.902344 C 76 103.835938 75.335938 103.734375 74.675781 103.605469 C 74.015625 103.472656 73.367188 103.3125 72.722656 103.117188 C 72.082031 102.921875 71.449219 102.695312 70.828125 102.4375 C 70.207031 102.179688 69.601562 101.894531 69.007812 101.578125 C 68.417969 101.261719 67.839844 100.914062 67.28125 100.542969 C 66.722656 100.167969 66.183594 99.769531 65.667969 99.34375 C 65.148438 98.917969 64.648438 98.46875 64.175781 97.992188 C 63.699219 97.515625 63.25 97.019531 62.824219 96.5 C 62.398438 95.980469 61.996094 95.441406 61.625 94.882812 C 61.25 94.324219 60.90625 93.75 60.589844 93.15625 C 60.273438 92.566406 59.984375 91.957031 59.730469 91.335938 C 59.472656 90.71875 59.246094 90.085938 59.050781 89.441406 C 58.855469 88.800781 58.691406 88.148438 58.5625 87.488281 C 58.429688 86.832031 58.332031 86.167969 58.265625 85.5 C 58.199219 84.832031 58.167969 84.160156 58.167969 83.488281 C 58.167969 82.816406 58.199219 82.148438 58.265625 81.476562 C 58.332031 80.808594 58.429688 80.144531 58.5625 79.488281 C 58.691406 78.828125 58.855469 78.179688 59.050781 77.535156 C 59.246094 76.890625 59.472656 76.261719 59.730469 75.640625 C 59.984375 75.019531 60.273438 74.414062 60.589844 73.820312 C 60.90625 73.226562 61.25 72.652344 61.625 72.09375 C 61.996094 71.535156 62.398438 70.996094 62.824219 70.476562 C 63.25 69.957031 63.699219 69.460938 64.175781 68.984375 C 64.648438 68.511719 65.148438 68.058594 65.667969 67.632812 C 66.183594 67.207031 66.722656 66.808594 67.28125 66.433594 C 67.839844 66.0625 68.417969 65.71875 69.007812 65.398438 C 69.601562 65.082031 70.207031 64.796875 70.828125 64.539062 C 71.449219 64.28125 72.082031 64.054688 72.722656 63.863281 C 73.367188 63.667969 74.015625 63.503906 74.675781 63.371094 C 75.335938 63.242188 76 63.144531 76.667969 63.078125 C 77.335938 63.011719 78.007812 62.976562 78.675781 62.976562 C 79.347656 62.976562 80.019531 63.011719 80.6875 63.078125 C 81.355469 63.144531 82.019531 63.242188 82.679688 63.371094 C 83.339844 63.503906 83.988281 63.667969 84.632812 63.863281 C 85.273438 64.054688 85.90625 64.28125 86.527344 64.539062 C 87.148438 64.796875 87.753906 65.082031 88.347656 65.398438 C 88.9375 65.71875 89.515625 66.0625 90.074219 66.433594 C 90.632812 66.808594 91.171875 67.207031 91.6875 67.632812 C 92.207031 68.058594 92.707031 68.511719 93.179688 68.984375 C 93.65625 69.460938 94.105469 69.957031 94.53125 70.476562 C 94.957031 70.996094 95.359375 71.535156 95.730469 72.09375 C 96.105469 72.652344 96.449219 73.226562 96.765625 73.820312 C 97.082031 74.414062 97.371094 75.019531 97.625 75.640625 C 97.882812 76.261719 98.109375 76.890625 98.304688 77.535156 C 98.5 78.179688 98.664062 78.828125 98.792969 79.488281 C 98.925781 80.144531 99.023438 80.808594 99.089844 81.476562 C 99.15625 82.148438 99.1875 82.816406 99.1875 83.488281 Z M 99.1875 83.488281 " fill-opacity="1" fill-rule="nonzero"/></svg>